<?xml version="1.0" encoding="UTF-8"?><svg id="Layer_1" xmlns="http://www.w3.org/2000/svg" viewBox="0 0 456 60"><defs><style>.cls-1{fill:#fff;}</style></defs><path class="cls-1" d="M9.55,45.52L20.48,13.12h5.22l10.96,32.4h-3.96L22.42,15.3h1.28l-10.22,30.22h-3.94Zm5.15-7.67v-3.56H31.51v3.56H14.7Z"/><path class="cls-1" d="M41.16,16.83v-4h3.8v4h-3.8Zm0,28.69V21.22h3.8v24.3h-3.8Z"/><path class="cls-1" d="M51.71,45.52V21.22h3.4v5.87l-.58-.76c.28-.75,.65-1.44,1.1-2.06,.45-.62,.94-1.14,1.48-1.54,.63-.51,1.35-.9,2.16-1.18,.81-.28,1.63-.44,2.46-.5,.83-.05,1.61,0,2.33,.17v3.55c-.85-.21-1.79-.26-2.81-.16s-1.96,.49-2.81,1.15c-.8,.58-1.4,1.28-1.82,2.09-.42,.81-.71,1.69-.87,2.63-.16,.94-.24,1.9-.24,2.86v12.17h-3.8Z"/><path class="cls-1" d="M68.79,45.52V13.12h3.8v28.8h15.12v3.6h-18.92Z"/><path class="cls-1" d="M98.46,46.19c-1.83,0-3.36-.33-4.59-.99-1.23-.66-2.15-1.54-2.77-2.64-.62-1.1-.92-2.3-.92-3.59s.25-2.4,.74-3.34,1.19-1.71,2.09-2.33c.9-.62,1.97-1.1,3.2-1.44,1.18-.31,2.5-.59,3.95-.82,1.45-.23,2.9-.44,4.35-.63,1.46-.19,2.8-.37,4.03-.55l-1.37,.79c.04-2.22-.4-3.87-1.33-4.94-.93-1.07-2.54-1.61-4.81-1.61-1.52,0-2.83,.35-3.96,1.04s-1.91,1.8-2.36,3.33l-3.62-1.08c.57-2.15,1.7-3.82,3.39-5.03s3.9-1.81,6.63-1.81c2.19,0,4.07,.4,5.65,1.2,1.58,.8,2.71,2,3.4,3.59,.33,.74,.54,1.54,.63,2.41,.09,.87,.13,1.78,.13,2.72v15.05h-3.38v-5.92l.83,.5c-.89,2.01-2.16,3.53-3.84,4.56s-3.69,1.54-6.06,1.54Zm.54-3.19c1.47,0,2.75-.27,3.84-.8,1.09-.53,1.96-1.24,2.62-2.13,.66-.89,1.09-1.86,1.28-2.93,.21-.76,.33-1.61,.35-2.53,.02-.92,.03-1.63,.03-2.13l1.35,.63c-1.25,.18-2.51,.35-3.79,.51-1.28,.16-2.51,.33-3.67,.52-1.16,.19-2.21,.41-3.14,.66-.68,.21-1.31,.49-1.91,.83-.6,.35-1.08,.78-1.45,1.32-.37,.53-.55,1.2-.55,1.99,0,.67,.17,1.32,.51,1.94,.34,.62,.88,1.12,1.62,1.52,.74,.4,1.71,.6,2.91,.6Z"/><path class="cls-1" d="M125.76,45.52V13.12h9.95c.33,0,.91,0,1.73,.02,.82,.02,1.62,.08,2.38,.18,2.49,.33,4.57,1.24,6.24,2.73,1.67,1.49,2.93,3.39,3.78,5.68,.85,2.3,1.27,4.82,1.27,7.58s-.42,5.29-1.27,7.58c-.85,2.3-2.11,4.19-3.78,5.68s-3.75,2.4-6.24,2.73c-.75,.09-1.54,.15-2.38,.17-.84,.02-1.42,.03-1.73,.03h-9.95Zm3.92-3.62h6.03c.57,0,1.21-.02,1.92-.06,.71-.04,1.33-.1,1.86-.19,1.8-.33,3.26-1.08,4.38-2.25,1.12-1.17,1.93-2.63,2.45-4.38s.78-3.65,.78-5.7-.26-4-.79-5.75c-.52-1.75-1.35-3.2-2.46-4.35-1.12-1.15-2.57-1.9-4.35-2.23-.53-.09-1.15-.15-1.87-.19-.72-.04-1.36-.06-1.91-.06h-6.03v25.15Z"/><path class="cls-1" d="M166.73,46.19c-2.38,0-4.46-.52-6.23-1.57s-3.14-2.53-4.12-4.43c-.98-1.9-1.46-4.13-1.46-6.68s.48-4.95,1.44-6.88c.96-1.94,2.31-3.43,4.06-4.49,1.75-1.06,3.79-1.59,6.13-1.59s4.5,.56,6.21,1.68c1.71,1.12,3,2.72,3.87,4.79,.87,2.08,1.24,4.55,1.12,7.41h-3.83v-1.35c-.06-3.03-.69-5.31-1.9-6.83-1.21-1.52-2.99-2.28-5.34-2.28-2.52,0-4.44,.81-5.76,2.44-1.32,1.63-1.98,3.95-1.98,6.96s.66,5.19,1.98,6.81c1.32,1.61,3.19,2.42,5.62,2.42,1.65,0,3.09-.38,4.31-1.14s2.18-1.85,2.87-3.27l3.62,1.28c-.96,2.15-2.38,3.8-4.26,4.97-1.88,1.17-4,1.75-6.36,1.75Zm-9.09-11.77v-3.08h18.16v3.08h-18.16Z"/><path class="cls-1" d="M188.42,45.52l-8.82-24.3h3.85l6.91,19.44,6.91-19.44h3.87l-8.82,24.3h-3.89Z"/><path class="cls-1" d="M214.18,45.52V13.12h20.41v3.6h-16.6v10.48h13.9v3.6h-13.9v11.11h16.6v3.6h-20.41Z"/><path class="cls-1" d="M239.97,45.52V21.22h3.42v6.34h.41v17.96h-3.83Zm17.39,0v-12.24c0-1.21-.11-2.36-.33-3.44-.22-1.08-.59-2.05-1.11-2.9-.53-.85-1.21-1.52-2.07-2-.85-.48-1.93-.72-3.22-.72-1.05,0-2,.18-2.83,.54-.84,.36-1.56,.89-2.15,1.6s-1.05,1.59-1.37,2.64-.48,2.28-.48,3.68l-2.54-.72c0-2.4,.43-4.44,1.28-6.13s2.05-2.98,3.59-3.88,3.33-1.35,5.39-1.35c1.53,0,2.85,.24,3.95,.72s2.02,1.12,2.77,1.94,1.33,1.71,1.77,2.71c.44,1,.75,2.03,.93,3.09,.19,1.07,.28,2.09,.28,3.06v13.41h-3.85Z"/><path class="cls-1" d="M273.62,45.52l-8.82-24.3h3.85l6.91,19.44,6.91-19.44h3.87l-8.82,24.3h-3.89Z"/><path class="cls-1" d="M290.84,16.83v-4h3.8v4h-3.8Zm0,28.69V21.22h3.8v24.3h-3.8Z"/><path class="cls-1" d="M301.39,45.52V21.22h3.4v5.87l-.58-.76c.28-.75,.65-1.44,1.1-2.06,.45-.62,.94-1.14,1.48-1.54,.63-.51,1.35-.9,2.16-1.18,.81-.28,1.63-.44,2.46-.5,.83-.05,1.61,0,2.33,.17v3.55c-.85-.21-1.79-.26-2.81-.16s-1.96,.49-2.81,1.15c-.8,.58-1.4,1.28-1.82,2.09-.42,.81-.71,1.69-.87,2.63-.16,.94-.24,1.9-.24,2.86v12.17h-3.8Z"/><path class="cls-1" d="M327.85,46.19c-2.42,0-4.49-.55-6.23-1.64-1.74-1.1-3.08-2.61-4.01-4.55-.93-1.93-1.4-4.15-1.4-6.66s.48-4.78,1.43-6.71c.95-1.92,2.3-3.42,4.04-4.49,1.74-1.07,3.79-1.61,6.17-1.61s4.51,.54,6.25,1.63c1.74,1.09,3.08,2.6,4.02,4.52,.94,1.93,1.41,4.14,1.41,6.65s-.47,4.79-1.42,6.72c-.94,1.93-2.29,3.43-4.03,4.51-1.74,1.08-3.82,1.62-6.23,1.62Zm0-3.6c2.58,0,4.5-.86,5.76-2.58,1.26-1.72,1.89-3.94,1.89-6.67s-.64-5.02-1.91-6.69c-1.27-1.67-3.19-2.51-5.74-2.51-1.73,0-3.15,.39-4.27,1.18s-1.96,1.87-2.51,3.24c-.55,1.37-.82,2.97-.82,4.78,0,2.79,.64,5.03,1.94,6.72,1.29,1.69,3.18,2.53,5.67,2.53Z"/><path class="cls-1" d="M344.45,45.52V21.22h3.4v6.34h.43v17.96h-3.83Zm14.56,0l.02-15.5c0-1.88-.49-3.35-1.47-4.43-.98-1.08-2.28-1.62-3.9-1.62s-2.9,.56-3.89,1.67c-.99,1.11-1.48,2.57-1.48,4.39l-2.07-1.21c0-1.58,.37-2.98,1.11-4.22,.74-1.24,1.76-2.21,3.04-2.93,1.28-.71,2.74-1.07,4.38-1.07s3.01,.34,4.23,1.02c1.21,.68,2.16,1.66,2.82,2.94,.67,1.28,1,2.8,1,4.57l-.02,16.4h-3.76Zm14.49,0l.02-15.66c0-1.84-.49-3.29-1.48-4.33-.99-1.04-2.27-1.56-3.82-1.56-.92,0-1.79,.21-2.61,.63-.83,.42-1.5,1.08-2.02,1.97-.53,.89-.79,2.04-.79,3.45l-2.07-.77c-.04-1.74,.3-3.26,1.05-4.56,.74-1.3,1.76-2.31,3.05-3.03,1.29-.72,2.74-1.08,4.36-1.08,2.5,0,4.49,.77,5.95,2.3,1.46,1.53,2.19,3.58,2.19,6.16l-.02,16.47h-3.8Z"/><path class="cls-1" d="M393.44,46.19c-2.38,0-4.46-.52-6.23-1.57s-3.14-2.53-4.12-4.43c-.98-1.9-1.46-4.13-1.46-6.68s.48-4.95,1.44-6.88c.96-1.94,2.31-3.43,4.06-4.49,1.75-1.06,3.79-1.59,6.13-1.59s4.5,.56,6.21,1.68c1.71,1.12,3,2.72,3.87,4.79,.87,2.08,1.24,4.55,1.12,7.41h-3.83v-1.35c-.06-3.03-.69-5.31-1.9-6.83-1.21-1.52-2.99-2.28-5.34-2.28-2.52,0-4.44,.81-5.76,2.44-1.32,1.63-1.98,3.95-1.98,6.96s.66,5.19,1.98,6.81c1.32,1.61,3.19,2.42,5.62,2.42,1.65,0,3.09-.38,4.31-1.14s2.18-1.85,2.87-3.27l3.62,1.28c-.96,2.15-2.38,3.8-4.26,4.97-1.88,1.17-4,1.75-6.36,1.75Zm-9.09-11.77v-3.08h18.16v3.08h-18.16Z"/><path class="cls-1" d="M408.76,45.52V21.22h3.42v6.34h.41v17.96h-3.83Zm17.39,0v-12.24c0-1.21-.11-2.36-.33-3.44-.22-1.08-.59-2.05-1.11-2.9-.53-.85-1.21-1.52-2.07-2-.85-.48-1.93-.72-3.22-.72-1.05,0-2,.18-2.83,.54-.84,.36-1.56,.89-2.15,1.6s-1.05,1.59-1.37,2.64-.48,2.28-.48,3.68l-2.54-.72c0-2.4,.43-4.44,1.28-6.13s2.05-2.98,3.59-3.88,3.33-1.35,5.39-1.35c1.53,0,2.85,.24,3.95,.72s2.02,1.12,2.77,1.94,1.33,1.71,1.77,2.71c.44,1,.75,2.03,.93,3.09,.19,1.07,.28,2.09,.28,3.06v13.41h-3.85Z"/><path class="cls-1" d="M433.15,24.39v-3.17h16.15v3.17h-16.15Zm16.15,21.13c-1.41,.28-2.81,.4-4.19,.35-1.38-.05-2.61-.34-3.69-.85s-1.9-1.32-2.45-2.42c-.46-.93-.72-1.88-.75-2.85-.04-.97-.06-2.07-.06-3.3V14.47h3.78v21.82c0,1.01,.01,1.85,.03,2.54,.02,.69,.18,1.3,.46,1.82,.54,.98,1.4,1.55,2.58,1.72,1.18,.17,2.61,.12,4.29-.15v3.29Z"/></svg>