<?xml version="1.0" encoding="UTF-8"?><svg id="Layer_1" xmlns="http://www.w3.org/2000/svg" viewBox="0 0 1457 353"><defs><style>.cls-1{fill:#252b34;}.cls-2{fill:#232931;}.cls-3{fill:#222831;}</style></defs><path class="cls-3" d="M1398,307.85c-.02,.75,.09,1.44,.88,1.8,.37,1.64,.84,2.85-1.96,2.76-7.1-.22-14.22,.05-21.33,.12-7.57-.09-15.15-.28-22.72-.21-2.45,.02-3.35-.77-4.01-3.13-1.25-4.47-1.61-9.11-2.73-13.86-2.66,2.23-4.97,4.28-7.4,6.17-8.45,6.58-18.21,10.39-28.42,13.22-7.85,1.32-15.72,2.49-23.71,2.42-23.5-.22-43.91-6.55-56.35-28.58-6.57-16.09-6.81-32.25-.61-48.5,2.59-4.83,5.56-9.39,9.6-13.18,9.34-8.75,20.97-12.55,33.05-15.42,15.09-3.59,30.64-3.99,45.85-6.7,4.79-.85,9.58-1.77,14.15-3.36,7.88-2.73,11.88-8.47,11.86-16.27-.02-10.43-4.52-17.93-12.7-20.81-9.52-3.35-19.3-3.69-29.14-1.86-13.23,2.47-20.01,9.58-21.87,22.84-.31,2.24-.97,3.13-3.45,3.11-14.36-.13-28.72-.15-43.07,0-2.84,.03-3.21-.96-2.95-3.4,2.25-20.68,12.57-35.85,31.02-45.42,13.63-7.06,28.33-9.93,43.53-10.71,18.94-.98,37.63,.25,55.75,6.39,19.78,6.71,30.75,20.65,31.85,41.48,.6,11.32,.19,22.7,.24,34.05,.06,14.97,.13,29.94,.19,44.9-.39,14.14-.61,28.29,1.61,42.31,.53,3.33,.84,6.84,2.84,9.8Zm-53.76-82.86c-4.69,3.34-9.6,4.9-14.69,5.87-5.26,1-10.55,1.78-15.84,2.62-8.24,1.3-16.48,2.52-24.3,5.7-7.93,3.23-13.22,8.48-14.74,17.24-2.29,13.15,3.68,22.96,16.54,26.29,8.98,2.32,18.06,2.11,27.03-.11,13.7-3.41,21.67-12.36,24.61-26.03,2.21-10.24,.97-20.61,1.4-31.57Z"/><path class="cls-2" d="M33.1,303.67c.23-1.01,.47-2.01,.7-3.02,.76-.13,.85-.72,.91-1.33,8.24-10.59,16.52-21.14,24.72-31.76,7.82-10.13,15.57-20.33,23.35-30.5,2.99-3.78,5.96-7.56,8.96-11.32,.72-.9,1.21-2.35,2.85-1.34,3.8,4.24,7.53,8.56,11.45,12.69,1.54,1.62,1.39,2.65,.06,4.33-4.97,6.33-9.75,12.8-14.61,19.22-7.75,9.9-15.5,19.81-23.8,30.41,17.56-2.64,34.06-5.14,50.57-7.61,22.2-3.31,44.39-6.59,66.59-9.89,1.51-.22,2.85-.45,3.25-2.4,.78-3.77,1.8-7.49,2.71-11.23,.16-.33,.39-.64,.48-.98,5.48-21.04,10.88-42.09,16.49-63.1,.9-3.38,.1-3.4-2.77-2.7-13.9,3.36-27.84,6.55-41.78,9.76-1.18,.27-3.37,1.64-2.57-1.49,1.73-6.76,3.92-13.35,7.3-19.52,.85-1.55,2.06-2.06,3.48-2.39,8.96-2.11,17.96-4.05,26.88-6.31,2.37-.6,3.62,.14,5.02,1.77,6.52,7.65,10.06,16.8,13.3,26.11,.34,.97,.08,1.94-.18,2.93-1.94,7.21-3.85,14.42-5.72,21.64-3.29,12.76-6.53,25.53-9.79,38.3-.63,2.13-1.12,4.31-1.91,6.37-1.09,2.83-.29,3.79,2.74,4.27,29.76,4.73,59.49,9.63,89.24,14.46,8.58,1.39,17.16,2.75,26.22,4.19-2.52-9.63-4.93-18.84-7.33-28.04-3.46-15.22-7.19-30.37-11.37-45.41q-1.11-8.05-8.94-10.09c-1.44-.38-2.86-.85-4.41-1.31,3.66-5.83,7.74-11.15,12.04-16.3,.54-.64,1.01-1.28,1.97-1.57,22.47-6.84,44.91-13.76,67.37-20.61,5.9-1.8,9.7-.59,13.47,4.32,7.29,9.49,14.48,19.06,21.75,28.56,9.91,12.97,19.85,25.91,29.78,38.86,8.14,10.85,16.28,21.71,24.44,32.54,1.96,2.6,3.85,5.21,4.38,8.53-1.14,6.91-3.79,9.93-9.77,11.02-6.24,1.13-12.5,2.16-18.74,3.3-11.98,2.19-23.95,4.42-35.92,6.64-.74,.03-1.5-.03-2.23,.1-17.51,3.1-35.01,6.29-52.54,9.29-6.1,1.04-12.14,3.27-18.42,2.36-10.82-1.58-21.58-3.57-32.38-5.3-11.78-1.9-23.57-3.7-35.35-5.55-18.18-3.02-36.47-5.55-54.51-9.25-11.38-2.33-22.07,.43-32.96,1.98-31.11,4.45-62.16,9.23-93.24,13.89-8.88,1.33-17.77,2.61-26.64,4.03-9.16,1.46-14.07-2.36-14.58-11.52Zm285.88-46.45c2.75,11.22,5.57,22.42,8.2,33.66,.61,2.6,1.54,3.22,4.28,2.73,23.67-4.3,47.38-8.4,71.08-12.58,9.31-1.64,18.61-3.35,28.56-5.14-5.25-6.79-10.17-13.16-15.09-19.53-4.36-6.39-9.48-12.2-13.99-18.5-10.73-14.96-22.14-29.44-33.25-44.13-1.07-1.41-2.08-2.05-4.05-1.43-18.36,5.76-36.75,11.4-55.14,17.03-1.76,.54-2.31,1.2-1.8,3.17,3.82,14.89,7.5,29.81,11.23,44.72Z"/><path class="cls-3" d="M548.26,304.48c3.12-7.1,5.94-14.32,8.24-21.72,4.48-11.56,8.97-23.12,13.43-34.68,.94-2.43,1.79-4.89,2.68-7.33,12.34-32.41,24.69-64.81,37.01-97.23,9.63-25.33,19.24-50.66,28.79-76.02,.65-1.72,1.53-2.2,3.26-2.19,16.98,.05,33.96,.08,50.94-.03,2.3-.01,2.95,1.12,3.61,2.89,10.28,27.6,20.59,55.18,30.89,82.77,11.86,31.76,23.72,63.53,35.59,95.29,.08,.21,.33,.36,.5,.54,1.78,5.02,3.47,10.08,5.35,15.06,4.34,11.5,8.77,22.97,13.17,34.46,1.55,4.32,3.05,8.66,4.66,12.96,.72,1.92,1.17,3.12-1.83,3.1-16.99-.12-33.98-.09-50.97-.02-1.97,0-2.93-.64-3.45-2.52-.52-1.88-1.37-3.66-2.08-5.49-2.11-7.42-4.53-14.74-7.38-21.91-.11-.61-.13-1.25-.35-1.82-2.59-6.8-5.56-13.47-7.07-20.64-.42-2.02-1.39-2.89-3.6-2.72-2.85,.22-5.73,.06-8.6,.06-25.94,0-51.88,0-77.81,.01-1.52,0-3.2-.55-3.95,1.72-2.75,8.28-5.65,16.52-8.49,24.77-2.35,6.27-4.85,12.49-6.58,18.98-.09,.08-.23,.15-.27,.26-1.18,2.98-1.57,6.97-3.75,8.68-2.39,1.87-6.47,.55-9.81,.57-13.44,.06-26.88,.03-40.32,0-1.34,0-2.73,.34-4.15-.43,.78-2.45,1.56-4.9,2.34-7.35Zm149.85-87.86c-10.4-30.29-20.72-60.32-31.04-90.35-.27,.02-.54,.04-.81,.07-10.67,30.06-21.34,60.11-32.05,90.28h63.89Z"/><path class="cls-3" d="M1087.21,239.99c-.05,7.98-.02,15.96-.19,23.93-.05,2.25,.83,2.7,2.84,2.68,7.86-.08,15.72-.03,23.59-.03,30.08,0,60.16,.04,90.23-.07,3.05-.01,4.07,.69,3.97,3.86-.21,6.35,.03,12.71,.08,19.07-.05,6.48-.21,12.96-.11,19.43,.04,2.47-.47,3.47-3.24,3.46-56.14-.08-112.29-.07-168.43-.01-2.39,0-3.25-.59-3.18-3.1,.13-4.85-.1-9.7-.18-14.55,.35-13.99,.43-27.98,0-41.97,.07-1.49,.22-2.98,.22-4.47,.02-59.55,.05-119.1-.04-178.65,0-3.24,.57-4.4,4.16-4.35,15.11,.23,30.23,.22,45.34,0,3.73-.05,4.92,.68,4.91,4.72-.15,55.31-.1,110.61-.09,165.92,0,1.37,.08,2.74,.13,4.11Z"/><path class="cls-2" d="M892.79,253.47c.05-15.84,.12-31.69,.14-47.53,.02-22.96,.07-45.92-.07-68.88-.02-3.03,.89-3.66,3.73-3.62,13.36,.15,26.72,.13,40.08,0,2.49-.02,3.16,.7,3.13,3.13-.14,8.61-.05,17.22-.05,25.83v3.6c1.21,.14,1.29-.63,1.52-1.13,7.51-16.08,19.8-26.99,36.41-32.85,9.12-3.21,18.56-4.65,28.27-2.36,1.88,.44,2.35,1.16,2.35,2.94-.06,13.48-.13,26.96,.04,40.43,.04,3.13-1.44,2.75-3.44,2.44-9.05-1.39-18.07-1.76-27.15,.02-18.61,3.64-28.81,15.58-33.12,33.3-3.52,14.48-2.44,29.24-2.29,43.94-.37,13.98-.28,27.97,0,41.95-.06,4.84-.22,9.69-.15,14.53,.03,2.1-.35,3.13-2.81,3.11-14.56-.1-29.12-.1-43.68,0-2.48,.02-2.82-1.02-2.79-3.11,.08-4.84-.05-9.69-.1-14.54,0-13.73,0-27.47,0-41.2Z"/><path class="cls-3" d="M805,246.73c.05-18.22,.11-36.45,.14-54.67,.02-18.35,.06-36.7-.05-55.05-.02-2.61,.37-3.63,3.37-3.59,14.11,.19,28.23,.18,42.34,0,2.96-.04,3.41,.93,3.4,3.58-.08,37.33-.05,74.65-.03,111.98,0,1.49,.14,2.98,.22,4.47-.45,13.74-.35,27.48,0,41.22-.08,4.96-.26,9.92-.19,14.88,.03,2.09-.6,2.77-2.73,2.76-14.55-.08-29.1-.08-43.66,0-2.14,.01-2.74-.66-2.7-2.75,.09-4.97-.05-9.94-.1-14.9,0-15.98,0-31.96,0-47.94Z"/><path class="cls-1" d="M263.15,219.41c-4.83,8.57-8.18,17.75-11.15,27.09-.95,2.99-2.05,5.79-5.92,5.57-3.81-.21-4.73-2.99-5.32-6.12-3.99-21.06-9.29-41.73-18.85-61.05-4.38-8.86-9.69-17.1-17.48-23.49-13.54-11.09-31.39-8.05-42.26,3.87-8.21,9.02-12.15,20.11-15.19,31.62-4.15,15.73-5.07,31.8-5.02,47.96,0,3.06-.33,5.83-3.59,6.93-3.35,1.13-5.4-.98-7.04-3.52-5.4-8.39-11.19-16.48-17.78-23.99-.97-1.11-2.09-2.09-3.14-3.14-12.36-14.05-26.62-25.39-44.68-31.31-5.32-1.74-7.13-3.87-6.19-7.21,1.03-3.66,3.54-4.47,9.33-2.74,15.13,4.51,27.73,13.24,39.25,23.75,7.67,7,14.57,14.68,20.82,22.97,.66,.87,1.45,1.65,2.58,2.92,.74-6.51,1.3-12.51,2.13-18.48,2.31-16.68,6.6-32.68,16.12-46.92,11.34-16.95,31.36-24.26,49.56-17.66,10.11,3.67,17.35,11.03,23.42,19.59,9.55,13.45,15.46,28.61,20.23,44.25,1.63,5.33,3.07,10.72,4.82,16.85,3.77-9.24,7.95-17.5,12.69-25.46,12.58-21.11,28.17-39.56,48.3-53.93,3.51-2.51,6.56-2.45,8.58,.19,1.95,2.55,1.1,5.72-2.36,8.24-22.04,16.02-38.44,36.75-50.89,60.78-.4,.77-.65,1.61-.96,2.41Z"/><path class="cls-2" d="M322.96,63.86c4.01-.94,7.64-1.65,11.19-2.67,1.73-.49,2.59,.68,3.63,1.36,13.21,8.64,26.42,17.3,39.52,26.12,2.08,1.4,3.48,1.43,5.6,.11,9.29-5.81,18.87-11.1,29.5-14.12,4.3-1.22,8.64-1.96,13.26-1.32,3.29,.45,3.14,1.95,2.39,4.18-2.04,6.1-6.21,10.73-10.78,14.98-6.58,6.12-13.81,11.46-21.56,16-2.45,1.44-3.09,2.98-2.74,5.67,1.91,15.08,3.55,30.19,5.56,45.25,.4,2.99,.12,5.24-2.02,7.41-1.97,2-3.63,4.3-5.78,6.9-3.39-10.12-6.61-19.71-9.81-29.32-2.27-6.81-4.58-13.6-6.73-20.45-.65-2.07-1.35-2.32-3.29-1.32-10.6,5.49-21.3,10.76-32.26,15.49-1.5,.65-2.01,1.48-1.98,3.07,.08,4.36-.32,8.76,.05,13.09,.36,4.19-1.4,6.82-4.89,9.04-1.89-7.53-3.76-14.92-5.57-22.31-.49-1.99-1.42-3.54-3.05-4.89-5.83-4.82-11.53-9.8-17.42-14.84,3.35-2.01,6.33-2.59,9.81-.54,3.84,2.27,8.03,3.95,12.01,6,1.52,.79,2.61,.65,3.95-.47,9.07-7.61,18.41-14.89,28.01-21.82,2.13-1.54,1.7-2.25,.14-3.79-11.36-11.23-22.63-22.55-33.93-33.85-.85-.85-1.65-1.76-2.79-2.97Z"/><path class="cls-2" d="M829.48,105.78c-7.11,0-14.22-.06-21.33,.04-2.07,.03-3.12-.2-3.08-2.75,.15-11.72,.12-23.43,.01-35.15-.02-2.2,.73-2.65,2.76-2.64,14.47,.08,28.94,.09,43.4-.01,2.27-.02,2.96,.54,2.94,2.88-.12,11.59-.12,23.19,0,34.78,.02,2.35-.76,2.93-3,2.89-7.23-.13-14.47-.05-21.7-.05Z"/></svg>